HIERARCHY
ROOT hip
{
  OFFSET 234.013 66.0973 -80.7309
  CHANNELS 6 Xposition Yposition Zposition Zrotation Xrotation Yrotation
  JOINT abdomen
  {
    OFFSET 0 20.6881 -0.73152
    CHANNELS 3 Zrotation Xrotation Yrotation
    JOINT chest
    {
      OFFSET 0 11.7043 -0.48768
      CHANNELS 3 Zrotation Xrotation Yrotation
      JOINT neck
      {
        OFFSET 0 22.1894 -2.19456
        CHANNELS 3 Zrotation Xrotation Yrotation
        JOINT head
        {
          OFFSET -0.24384 7.07133 1.2192
          CHANNELS 3 Zrotation Xrotation Yrotation
          JOINT leftEye
          {
            OFFSET 4.14528 8.04674 8.04672
            CHANNELS 3 Zrotation Xrotation Yrotation
            End Site
            {
              OFFSET 1 0 0
            }
          }
          JOINT rightEye
          {
            OFFSET -3.6576 8.04674 8.04672
            CHANNELS 3 Zrotation Xrotation Yrotation
            End Site
            {
              OFFSET 1 0 0
            }
          }
        }
      }
      JOINT rCollar
      {
        OFFSET -2.68224 19.2634 -4.8768
        CHANNELS 3 Zrotation Xrotation Yrotation
        JOINT rShldr
        {
          OFFSET -8.77824 -1.95073 1.46304
          CHANNELS 3 Zrotation Xrotation Yrotation
          JOINT rForeArm
          {
            OFFSET -28.1742 -1.7115 0.48768
            CHANNELS 3 Zrotation Xrotation Yrotation
            JOINT rHand
            {
              OFFSET -22.5879 0.773209 7.07136
              CHANNELS 3 Zrotation Xrotation Yrotation
              JOINT rThumb1
              {
                OFFSET -1.2192 -0.487915 3.41376
                CHANNELS 3 Zrotation Xrotation Yrotation
                JOINT rThumb2
                {
                  OFFSET -3.37035 -0.52449 3.41376
                  CHANNELS 3 Zrotation Xrotation Yrotation
                  End Site
                  {
                    OFFSET -1.78271 -1.18214 1.43049
                  }
                }
              }
              JOINT rIndex1
              {
                OFFSET -7.75947 0.938293 5.60832
                CHANNELS 3 Zrotation Xrotation Yrotation
                JOINT rIndex2
                {
                  OFFSET -2.54057 -0.884171 1.56538
                  CHANNELS 3 Zrotation Xrotation Yrotation
                  End Site
                  {
                    OFFSET -1.62519 -0.234802 1.16502
                  }
                }
              }
              JOINT rMid1
              {
                OFFSET -8.24714 1.18213 3.41376
                CHANNELS 3 Zrotation Xrotation Yrotation
                JOINT rMid2
                {
                  OFFSET -3.10165 -0.590103 1.0647
                  CHANNELS 3 Zrotation Xrotation Yrotation
                  End Site
                  {
                    OFFSET -2.48547 -0.328903 0.83742
                  }
                }
              }
              JOINT rRing1
              {
                OFFSET -8.82822 0.546677 1.51678
                CHANNELS 3 Zrotation Xrotation Yrotation
                JOINT rRing2
                {
                  OFFSET -2.60934 -0.819778 -0.0198488
                  CHANNELS 3 Zrotation Xrotation Yrotation
                  End Site
                  {
                    OFFSET -2.33842 -0.294052 0.168128
                  }
                }
              }
              JOINT rPinky1
              {
                OFFSET -8.27202 -0.0477905 -0.4584
                CHANNELS 3 Zrotation Xrotation Yrotation
                JOINT rPinky2
                {
                  OFFSET -1.82734 -0.647385 -0.700984
                  CHANNELS 3 Zrotation Xrotation Yrotation
                  End Site
                  {
                    OFFSET -1.69225 -0.51767 -0.607171
                  }
                }
              }
            }
          }
        }
      }
      JOINT lCollar
      {
        OFFSET 2.68224 19.2634 -4.8768
        CHANNELS 3 Zrotation Xrotation Yrotation
        JOINT lShldr
        {
          OFFSET 8.77824 -1.95073 1.46304
          CHANNELS 3 Zrotation Xrotation Yrotation
          JOINT lForeArm
          {
            OFFSET 28.1742 -1.7115 0.48768
            CHANNELS 3 Zrotation Xrotation Yrotation
            JOINT lHand
            {
              OFFSET 22.5879 0.773209 7.07136
              CHANNELS 3 Zrotation Xrotation Yrotation
              JOINT lThumb1
              {
                OFFSET 1.2192 -0.487915 3.41376
                CHANNELS 3 Zrotation Xrotation Yrotation
                JOINT lThumb2
                {
                  OFFSET 3.37035 -0.52449 3.41376
                  CHANNELS 3 Zrotation Xrotation Yrotation
                  End Site
                  {
                    OFFSET 1.78271 -1.18214 1.43049
                  }
                }
              }
              JOINT lIndex1
              {
                OFFSET 7.75947 0.938293 5.60832
                CHANNELS 3 Zrotation Xrotation Yrotation
                JOINT lIndex2
                {
                  OFFSET 2.54057 -0.884171 1.56538
                  CHANNELS 3 Zrotation Xrotation Yrotation
                  End Site
                  {
                    OFFSET 1.62519 -0.234802 1.16502
                  }
                }
              }
              JOINT lMid1
              {
                OFFSET 8.24714 1.18213 3.41376
                CHANNELS 3 Zrotation Xrotation Yrotation
                JOINT lMid2
                {
                  OFFSET 3.10165 -0.590103 1.0647
                  CHANNELS 3 Zrotation Xrotation Yrotation
                  End Site
                  {
                    OFFSET 2.48547 -0.328903 0.83742
                  }
                }
              }
              JOINT lRing1
              {
                OFFSET 8.82822 0.546677 1.51678
                CHANNELS 3 Zrotation Xrotation Yrotation
                JOINT lRing2
                {
                  OFFSET 2.60934 -0.819778 -0.0198488
                  CHANNELS 3 Zrotation Xrotation Yrotation
                  End Site
                  {
                    OFFSET 2.33842 -0.294052 0.168128
                  }
                }
              }
              JOINT lPinky1
              {
                OFFSET 8.27202 -0.0477905 -0.4584
                CHANNELS 3 Zrotation Xrotation Yrotation
                JOINT lPinky2
                {
                  OFFSET 1.82734 -0.647385 -0.700984
                  CHANNELS 3 Zrotation Xrotation Yrotation
                  End Site
                  {
                    OFFSET 1.69225 -0.51767 -0.607171
                  }
                }
              }
            }
          }
        }
      }
    }
  }
  JOINT rButtock
  {
    OFFSET -8.77824 4.35084 1.2192
    CHANNELS 3 Zrotation Xrotation Yrotation
    JOINT rThigh
    {
      OFFSET 0 -1.70687 -2.19456
      CHANNELS 3 Zrotation Xrotation Yrotation
      JOINT rShin
      {
        OFFSET 0 -36.8199 0.73152
        CHANNELS 3 Zrotation Xrotation Yrotation
        JOINT rFoot
        {
          OFFSET 0.73152 -45.1104 -5.12064
          CHANNELS 3 Zrotation Xrotation Yrotation
          End Site
          {
            OFFSET -1.1221 -3.69964 12.103
          }
        }
      }
    }
  }
  JOINT lButtock
  {
    OFFSET 8.77824 4.35084 1.2192
    CHANNELS 3 Zrotation Xrotation Yrotation
    JOINT lThigh
    {
      OFFSET 0 -1.70687 -2.19456
      CHANNELS 3 Zrotation Xrotation Yrotation
      JOINT lShin
      {
        OFFSET 0 -36.8199 0.73152
        CHANNELS 3 Zrotation Xrotation Yrotation
        JOINT lFoot
        {
          OFFSET -0.73152 -45.1104 -5.12064
          CHANNELS 3 Zrotation Xrotation Yrotation
          End Site
          {
            OFFSET 1.1221 -3.69964 12.103
          }
        }
      }
    }
  }
}
MOTION
Frames:	4
Frame Time:	0.00833333
5.98459 59.5729 22.0134 -15.8799 0.054648 169.365 -12.409 35.7347 8.10658 -2.94659 0.364904 3.22207 -11.7291 17.3241 -7.63072 41.7685 -48.5919 -1.70785 -0 0 0 -0 0 0 -4.93497e-014 -1.27272e-014 3.30697e-014 75.6195 9.88183 32.6235 -10.6333 -4.54265 18.9898 -2.03189 37.0158 6.07886 5.7636e-010 -4.45794e-010 -1.50042e-010 9.85038e-010 -7.54194e-010 -2.73032e-010 5.76364e-010 -4.45791e-010 -1.5005e-010 7.73091 5.47488 0.417314 5.76358e-010 -4.45791e-010 -1.5005e-010 2.90554 0.965183 0.102902 5.76371e-010 -4.45791e-010 -1.50044e-010 10.2786 0.731801 0.0259123 5.76355e-010 -4.4579e-010 -1.50039e-010 2.22167 -0.733487 -0.20892 -4.93688e-014 -1.27171e-014 3.2902e-014 -54.2723 27.3253 -50.9437 26.7546 -25.5422 -60.0608 0.00863667 3.7495 -0.52647 -4.18062e-010 -9.9467e-010 3.34576e-010 -7.19193e-010 -1.71938e-009 5.7752e-010 -4.18068e-010 -9.94663e-010 3.34579e-010 -7.73091 5.47488 -0.417314 -4.18063e-010 -9.94657e-010 3.34574e-010 -2.90554 0.965183 -0.102902 -4.18068e-010 -9.94667e-010 3.34575e-010 -10.2786 0.731801 -0.0259123 -4.1806e-010 -9.9466e-010 3.34565e-010 -2.22167 -0.733487 0.20892 -2.03217e-016 0 -3.88251e-019 -2.17454 -20.2397 -13.9414 -1.31833 63.6098 1.7955 -3.56566 -27.4086 -6.86425 2.03217e-016 0 3.88251e-019 11.8962 -45.1492 20.0092 2.13892 69.2343 -1.88587 3.41828 -11.7841 8.22872 
8.146 59.7979 20.4142 -16.3172 0.38721 167.653 -14.1899 34.9843 9.52139 -2.73867 0.38488 3.27041 -12.2309 17.5381 -7.69798 42.6113 -48.23 -1.76782 -0 0 0 -0 0 0 -1.27834e-013 8.88899e-015 2.54008e-013 77.3456 6.2289 31.3486 -9.97228 -4.13432 17.7369 -2.23458 38.4656 6.40805 -2.16685e-010 9.66168e-010 -2.2017e-009 -4.4172e-010 1.69469e-009 -3.78843e-009 -2.16685e-010 9.66172e-010 -2.20171e-009 7.73091 5.47488 0.417314 -2.16689e-010 9.66172e-010 -2.20171e-009 2.90554 0.965183 0.102902 -2.16676e-010 9.66171e-010 -2.2017e-009 10.2786 0.731801 0.0259123 -2.1669e-010 9.66172e-010 -2.20169e-009 2.22167 -0.733487 -0.20892 -1.27831e-013 8.90251e-015 2.53856e-013 -52.9843 24.5159 -53.1356 26.3841 -24.4554 -58.3548 -0.0025932 1.27906 -0.178897 -4.93678e-010 -5.62984e-009 -2.65681e-010 -8.50763e-010 -9.76396e-009 -4.63189e-010 -4.93684e-010 -5.62983e-009 -2.65678e-010 -7.73091 5.47488 -0.417314 -4.93678e-010 -5.62982e-009 -2.65684e-010 -2.90554 0.965183 -0.102902 -4.93684e-010 -5.62983e-009 -2.65683e-010 -10.2786 0.731801 -0.0259123 -4.93677e-010 -5.62983e-009 -2.65699e-010 -2.22167 -0.733487 0.20892 -2.03217e-016 0 -3.88251e-019 -0.846091 -17.3163 -13.1965 -1.15065 61.1069 1.53471 -2.7732 -26.7513 -5.28614 2.03217e-016 0 3.88251e-019 11.622 -47.8343 20.6818 2.24912 69.361 -1.75266 3.31001 -10.624 7.6809 
10.3868 59.9942 18.7931 -16.5269 0.594487 166.063 -15.5319 34.169 10.6374 -2.601 0.401749 3.33551 -12.5981 17.6648 -7.97134 43.457 -47.7293 -1.7843 -0 0 0 -0 0 0 -1.5892e-013 2.8618e-014 4.25151e-013 78.3434 3.46947 30.1006 -9.52417 -3.85718 16.9122 -2.34419 39.1882 6.57907 -8.65807e-010 1.99718e-009 -3.78466e-009 -1.60535e-009 3.48169e-009 -6.50004e-009 -8.65808e-010 1.99719e-009 -3.78468e-009 7.73091 5.47488 0.417314 -8.6581e-010 1.99719e-009 -3.78467e-009 2.90554 0.965183 0.102902 -8.65799e-010 1.99719e-009 -3.78466e-009 10.2786 0.731801 0.0259123 -8.65811e-010 1.99719e-009 -3.78465e-009 2.22167 -0.733487 -0.20892 -1.58898e-013 2.86324e-014 4.25002e-013 -52.0205 21.7448 -54.8405 25.9902 -23.4097 -56.7254 0.00124263 -1.00651 0.14147 -7.16609e-010 -1.06724e-008 -5.90066e-010 -1.23652e-009 -1.85185e-008 -1.02749e-009 -7.16614e-010 -1.06723e-008 -5.90063e-010 -7.73091 5.47488 -0.417314 -7.16607e-010 -1.06723e-008 -5.90069e-010 -2.90554 0.965183 -0.102902 -7.16615e-010 -1.06724e-008 -5.90068e-010 -10.2786 0.731801 -0.0259123 -7.16609e-010 -1.06724e-008 -5.90088e-010 -2.22167 -0.733487 0.20892 -2.03217e-016 0 -3.88251e-019 0.59062 -14.2407 -12.4854 -1.00056 58.3417 1.31881 -2.12172 -25.6273 -3.99706 2.03217e-016 0 3.88251e-019 11.5121 -50.4323 20.8648 2.27144 69.1031 -1.55376 3.03583 -9.35569 6.66606 
12.5768 60.1508 17.125 -16.4421 0.635172 164.603 -16.3173 33.2665 11.4072 -2.58989 0.407988 3.44208 -12.7767 17.6761 -8.56542 44.3505 -46.9841 -1.65752 -0 0 0 -0 0 0 -1.24333e-013 4.66096e-014 5.49326e-013 78.5912 1.83346 28.7226 -9.37372 -3.75885 16.6489 -2.32939 39.049 6.54965 -1.42344e-009 2.57547e-009 -4.79761e-009 -2.59299e-009 4.48086e-009 -8.23192e-009 -1.42344e-009 2.57547e-009 -4.79762e-009 7.73091 5.47488 0.417314 -1.42344e-009 2.57547e-009 -4.79761e-009 2.90554 0.965183 0.102902 -1.42344e-009 2.57547e-009 -4.79761e-009 10.2786 0.731801 0.0259123 -1.42345e-009 2.57547e-009 -4.79759e-009 2.22167 -0.733487 -0.20892 -1.24292e-013 4.66209e-014 5.49157e-013 -51.3228 18.981 -56.1076 25.581 -22.4131 -55.077 0.0103888 -3.01581 0.42386 -1.31267e-009 -1.90098e-008 -4.87849e-010 -2.26657e-009 -3.29868e-008 -8.56476e-010 -1.31268e-009 -1.90098e-008 -4.87845e-010 -7.73091 5.47488 -0.417314 -1.31267e-009 -1.90098e-008 -4.87852e-010 -2.90554 0.965183 -0.102902 -1.31268e-009 -1.90098e-008 -4.87851e-010 -10.2786 0.731801 -0.0259123 -1.31267e-009 -1.90098e-008 -4.87872e-010 -2.22167 -0.733487 0.20892 -2.03217e-016 0 -3.88251e-019 2.17872 -10.9447 -11.8576 -0.849623 55.1873 1.13881 -1.74681 -24.066 -3.31251 2.03217e-016 0 3.88251e-019 11.4883 -53.0128 20.2961 2.2063 68.3905 -1.28226 2.59242 -7.92348 5.03179 
